# xmcd
#
# Track frame offsets: 
#        150
#        15654
#        33037
#        51248
#        71510
#        86603
#        102315
#        119739
#        135883
#        154858
#
# Disc length: 2302 seconds
#
# Revision: 0
# Processed by: cddbd v1.5.2PL0 Copyright (c) Steve Scherf et al.
# Submitted via: ExactAudioCopy v0.99pb4
#
DISCID=7b08fc0a
DTITLE=Scott Wiggins Band - Burn
DYEAR=2007
DGENRE=Country
TTITLE0=Was It Worth It
TTITLE1=Side Of Me
TTITLE2=Lonely Is Holding Me
TTITLE3=Whole Time
TTITLE4=There Goes The World
TTITLE5=When She's Lonely
TTITLE6=Long Run
TTITLE7=Addictions
TTITLE8=Perfect Way To Fall
TTITLE9=Start Tonight
EXTD=
EXTT0=
EXTT1=
EXTT2=
EXTT3=
EXTT4=
EXTT5=
EXTT6=
EXTT7=
EXTT8=
EXTT9=
PLAYORDER=
